# xmcd
#
# Track frame offsets: 
#        150
#        18122
#        35198
#        52855
#        70805
#        86620
#        107241
#        129723
#        153416
#        173309
#        193756
#        215851
#
# Disc length: 3102 seconds
#
# Revision: 8
# Processed by: cddbd v1.5.2PL0 Copyright (c) Steve Scherf et al.
# Submitted via: ExactAudioCopy v1.3
#
DISCID=a20c1c0c
DTITLE=Ray Charles - Genius Loves Company
DYEAR=2004
DGENRE=R&B
TTITLE0=Here We Go Again (with Norah Jones)
TTITLE1=Sweet Potato Pie (with James Taylor)
TTITLE2=You Don't Know Me (with Diana Krall)
TTITLE3=Sorry Seems To Be The Hardest Word (with Elton John)
TTITLE4=Fever (with Natalie Cole)
TTITLE5=Do I Ever Cross Your Mind? (with Bonnie Raitt)
TTITLE6=It Was A Very Good Year (with Willie Nelson)
TTITLE7=Hey Girl (with Michael McDonald)
TTITLE8=Sinner's Prayer (with B.B. King)
TTITLE9=Heaven Help Us All (with Gladys Knight)
TTITLE10=Over The Rainbow (with Johnny Mathis)
TTITLE11=Crazy Love (with Van Morrisont)
EXTD=YEAR: 2004
EXTT0=
EXTT1=
EXTT2=
EXTT3=
EXTT4=
EXTT5=
EXTT6=
EXTT7=
EXTT8=
EXTT9=
EXTT10=
EXTT11=
PLAYORDER=
